<svg width="91" height="91" viewBox="0 0 91 91" fill="none" xmlns="http://www.w3.org/2000/svg">
<path d="M90.7477 64.3855C90.7477 80.9016 80.9016 90.7477 64.3855 90.7477H58.986C56.4905 90.7477 54.4486 88.7059 54.4486 86.2104V60.0296C54.4486 58.8045 55.4469 57.7609 56.672 57.7609L64.6578 57.6248C65.293 57.5794 65.8375 57.1257 65.9736 56.4905L67.5617 47.8241C67.6978 47.0073 67.0626 46.236 66.2005 46.236L56.5358 46.3721C55.2654 46.3721 54.2671 45.3739 54.2218 44.1488L54.0403 33.0322C54.0403 32.3062 54.6301 31.671 55.4015 31.671L66.2912 31.4895C67.0626 31.4895 67.6524 30.8996 67.6524 30.1283L67.4709 19.2385C67.4709 18.4671 66.8811 17.8773 66.1097 17.8773L53.8588 18.0588C46.3267 18.195 40.3374 24.3658 40.4735 31.8978L40.7004 44.3756C40.7457 45.6461 39.7475 46.6443 38.477 46.6897L33.0322 46.7805C32.2608 46.7805 31.671 47.3703 31.671 48.1417L31.8071 56.7627C31.8071 57.5341 32.3969 58.1239 33.1683 58.1239L38.6132 58.0332C39.8836 58.0332 40.8819 59.0314 40.9272 60.2565L41.3356 86.1196C41.381 88.6605 39.3391 90.7477 36.7982 90.7477H26.3622C9.84613 90.7477 0 80.9016 0 64.3401V26.3622C0 9.84613 9.84613 0 26.3622 0H64.3855C80.9016 0 90.7477 9.84613 90.7477 26.3622V64.3855Z" fill="white" fill-opacity="0.52"/>
</svg>
