<svg width="277" height="353" viewBox="0 0 277 353" fill="none" xmlns="http://www.w3.org/2000/svg">
<g filter="url(#filter0_d_330_365)">
<path fill-rule="evenodd" clip-rule="evenodd" d="M181.738 51.4905C186.346 46.0817 189.464 39.4532 188.943 32.0258C187.442 10.6253 157.651 15.3331 151.857 26.1343C146.062 36.9354 146.75 64.3333 154.24 66.2638C157.226 67.0337 163.589 65.1478 170.065 61.2446L166 90.0003H190L181.738 51.4905Z" fill="#B28B67"/>
<path fill-rule="evenodd" clip-rule="evenodd" d="M141.224 11.1608C141.721 9.41383 143.058 7.91809 144.86 7.47434C145.296 7.36671 145.748 7.32323 146.197 7.34136C146.358 7.34779 146.404 7.39429 146.479 7.28153C146.535 7.19793 146.536 6.99369 146.559 6.89545C146.631 6.58994 146.72 6.28824 146.831 5.99436C147.208 4.99201 147.841 4.10491 148.605 3.35763C150.033 1.95961 151.963 0.994757 153.968 0.820202C155.066 0.724715 156.155 0.903014 157.193 1.26001C157.73 1.44481 158.251 1.67492 158.758 1.92934C158.911 2.00591 159.406 2.38096 159.559 2.35666C159.729 2.32987 160.069 1.90917 160.207 1.80357C161.908 0.498212 164.009 -0.0150137 166.128 0.0003334C168.52 0.0183476 170.823 0.137871 172.818 1.59605C173.241 1.90477 173.643 2.24279 174.026 2.59866C174.228 2.78602 174.423 2.98041 174.609 3.18288C174.722 3.30503 174.831 3.42994 174.936 3.55819C175.115 3.7759 175.086 3.84742 175.337 3.69552C176.297 3.11222 177.409 2.83942 178.53 2.97713C179.195 3.05896 179.843 3.25873 180.458 3.52168C180.667 3.61119 181.151 3.96825 181.374 3.97173C181.596 3.97515 182.073 3.64416 182.301 3.56003C183.533 3.10552 184.86 2.99348 186.154 3.2035C187.489 3.42022 188.8 3.95282 189.931 4.6888C190.475 5.04284 190.95 5.4351 191.331 5.96152C191.496 6.18882 191.644 6.42924 191.831 6.63998C191.94 6.76338 192.156 6.89 192.215 7.04616C192.18 6.95265 193.675 6.37631 193.816 6.33947C194.568 6.14317 195.333 6.18297 196.069 6.42517C197.453 6.8806 198.643 7.90193 199.621 8.94907C200.123 9.48693 200.563 10.0815 200.936 10.7149C201.115 11.0183 201.279 11.3303 201.428 11.649C201.501 11.8034 201.549 11.9966 201.644 12.1357C201.768 12.3149 201.85 12.3183 202.073 12.3965C203.206 12.7932 204.238 13.4649 205.025 14.3724C205.82 15.2906 206.336 16.4212 206.552 17.6119C206.565 17.6821 206.573 17.9727 206.614 18.0107C206.67 18.063 206.898 18.0398 206.984 18.05C207.282 18.085 207.579 18.137 207.871 18.2063C208.41 18.3338 208.934 18.5215 209.43 18.767C211.364 19.7239 212.747 21.5178 213.424 23.5364C214.135 25.6549 214.122 28.0819 213.273 30.1608C213.136 30.4966 212.973 30.8225 212.781 31.1309C212.664 31.3201 212.626 31.3206 212.702 31.5192C212.787 31.7401 212.943 31.9548 213.044 32.1707C213.374 32.8751 213.604 33.6223 213.75 34.3854C213.989 35.6372 214.108 36.9526 213.872 38.2139C213.762 38.7996 213.572 39.3721 213.281 39.8937C213.132 40.1597 212.958 40.412 212.762 40.6453C212.661 40.7665 212.553 40.8822 212.439 40.993C212.375 41.0563 212.29 41.1118 212.235 41.1825C212.101 41.3549 212.073 41.2132 212.142 41.4664C212.239 41.8204 212.458 42.1697 212.592 42.5143C212.731 42.8693 212.856 43.2292 212.97 43.5926C213.202 44.3285 213.398 45.0778 213.521 45.8399C213.756 47.3031 213.715 48.8622 213.023 50.2052C212.727 50.7796 212.302 51.2835 211.787 51.6755C211.535 51.8672 211.262 52.0325 210.976 52.1683C210.829 52.2382 210.641 52.2681 210.574 52.4104C210.501 52.5634 210.609 52.8673 210.633 53.0384C210.846 54.5266 210.953 56.0892 210.51 57.5477C210.103 58.891 209.206 60.077 208.041 60.8623C205.781 62.3855 202.735 62.2996 200.361 61.0802C199.742 60.7622 199.163 60.3676 198.647 59.902C197.331 61.6725 194.625 61.6165 192.703 61.112C190.308 60.4835 188.386 58.8183 187.279 56.6304C185.765 58.4733 182.588 57.8754 181.538 55.8761C181.281 55.3867 181.129 54.8474 181.054 54.3017C181.014 54.0147 181.039 53.7252 181.01 53.4405C180.972 53.0778 180.73 52.7253 180.59 52.3743C180.319 51.6913 180.151 50.9858 180.143 50.2491C180.14 49.8644 180.188 49.4896 180.225 49.108C180.258 48.7646 180.163 48.4446 180.108 48.1056C180.723 48.2067 181.471 48.0411 182.05 47.863C182.617 47.6882 183.149 47.2279 183.55 46.8076C184.481 45.8314 185.049 44.5518 185.438 43.2782C186.292 40.483 185.942 37.1293 183.13 35.5952C181.82 34.8806 177.897 34.8829 176.337 35.2361C174.696 35.6075 172.837 39.2267 172.745 39.5669C172.689 39.7774 172.717 40.038 172.524 40.1783C172.099 40.4868 171.398 39.9515 171.084 39.6873C170.543 39.2313 170.157 38.6246 169.823 38.0097C169.095 36.67 168.508 35.2333 168.093 33.7666C167.773 32.6359 167.569 31.4699 167.151 30.368C166.735 29.2715 166.08 28.2915 165.06 27.6704C163.952 26.9947 162.681 26.6388 161.464 26.2142C160.257 25.7933 159.071 25.279 158.136 24.386C157.93 24.1897 157.731 23.981 157.565 23.7499C157.435 23.5674 157.305 23.218 157.106 23.1023C156.797 22.9223 156.345 23.3904 156.077 23.5604C154.757 24.399 153.655 25.5686 152.767 26.8463C151.883 28.1171 151.158 29.3398 150.569 30.7588C150.132 31.8112 149.859 33.159 149.091 34.0214C148.748 34.4065 146.197 34.6395 145.371 34.3033C144.545 33.9671 143.619 33.0941 143.342 32.547C143.058 31.987 142.99 31.3718 143.111 30.7588C143.183 30.3981 143.328 30.0612 143.408 29.707C143.475 29.4094 143.536 29.1282 143.681 28.8555C143.955 28.339 144.424 27.9677 144.99 27.8124C144.401 27.2698 143.914 26.6206 143.576 25.8949C143.226 25.141 142.928 24.2242 142.844 23.3967C142.776 22.7246 142.881 22.0283 143.249 21.4507C143.635 20.8448 144.319 20.4495 144.911 20.0716C144.007 19.3646 143.233 18.5047 142.598 17.5528C141.361 15.7015 140.596 13.3679 141.224 11.1608Z" fill="#191847"/>
<path fill-rule="evenodd" clip-rule="evenodd" d="M257 215H142C133.163 215 126 222.164 126 231V323C126 331.837 133.163 339 142 339H257C265.837 339 273 331.837 273 323V231C273 222.164 265.837 215 257 215ZM241 243C243.209 243 245 244.791 245 247V307C245 309.21 243.209 311 241 311H158C155.791 311 154 309.21 154 307V247C154 244.791 155.791 243 158 243H241Z" fill="#E9ED1A"/>
<path fill-rule="evenodd" clip-rule="evenodd" d="M54.4907 335.66C67.3035 307.302 76.5695 282.609 80.2889 269.58C86.6574 247.273 91.5021 227.644 92.7266 220.313C95.6466 202.833 70.2647 201.815 66.9097 210.502C61.8319 223.651 52.9671 266.853 42.3154 332.108L54.4907 335.66ZM203.112 246.664C191.356 242.017 150.188 227.475 130.333 223.362C124.627 222.18 119.097 221.081 113.898 220.089C98.444 217.138 90.4374 245.018 105.321 247.16C142.388 252.495 194.937 258.004 199.434 258.622C205.737 259.488 210.5 249.584 203.112 246.664Z" fill="#B28B67"/>
<path fill-rule="evenodd" clip-rule="evenodd" d="M104.413 212.417L168 180.047V173H160.438C98.9201 188.676 67.4846 198.722 66.1313 203.138C66.1168 203.186 66.1034 203.233 66.0913 203.281C66.0603 203.322 66.0299 203.362 66 203.404C53.8085 220.17 46.5071 302.027 44.1106 308.157L67.4723 311.642C76.4087 278.504 105 255.418 104.241 215.729C104.446 214.565 104.497 213.461 104.413 212.417Z" fill="#1F28CF"/>
<path fill-rule="evenodd" clip-rule="evenodd" d="M162.717 231.641C168.535 230.476 173.893 229.437 178.477 228.633C208.091 223.438 216.726 207.587 211.62 173H157.058C148.145 175.561 101.826 194.985 77.7934 205.317C61.8874 212.155 66.9015 236.805 75.909 243.22C75.958 243.613 76.1201 243.881 76.4087 244C124.863 264.083 163.195 253.546 176 256.913L181.923 238.229L162.717 231.641Z" fill="#2B44FF"/>
<path fill-rule="evenodd" clip-rule="evenodd" d="M199.092 243.694C202.267 243.998 204.521 244.475 205.853 245.125C207.474 245.915 209.707 247.339 212.554 249.395C211.636 251.275 203.395 268.173 187.829 300.089C182.831 299.282 180.851 297.375 181.888 294.367C182.925 291.36 183.761 288.849 184.397 286.835L185.385 258.15C185.404 257.598 185.867 257.166 186.419 257.185C186.428 257.185 186.438 257.186 186.447 257.186L190.86 257.464C193.367 255.434 195.021 253.598 195.823 251.955C196.474 250.621 196.833 248.515 196.902 245.637C196.929 244.533 197.846 243.659 198.95 243.686C198.997 243.687 199.045 243.69 199.092 243.694Z" fill="#E4E4E4"/>
<path fill-rule="evenodd" clip-rule="evenodd" d="M60.3219 330.402C61.4406 333.389 62 335.623 62 337.106C62 338.909 61.6996 341.541 61.0988 345C59.0068 345 40.2062 345 4.69695 345C3.23126 340.155 4.07734 337.539 7.23518 337.153C10.393 336.766 13.0163 336.417 15.105 336.106L41.32 324.419C41.8244 324.194 42.4157 324.421 42.6405 324.925C42.6444 324.934 42.6481 324.943 42.6517 324.951L44.3368 329.039C47.2601 330.403 49.6356 331.085 51.4633 331.085C52.9483 331.085 54.999 330.485 57.6155 329.286C58.6196 328.826 59.8067 329.266 60.267 330.27C60.2869 330.314 60.3052 330.358 60.3219 330.402Z" fill="#E4E4E4"/>
<path fill-rule="evenodd" clip-rule="evenodd" d="M109.956 157.123L81.6276 184.758C73.3852 188.274 66.6318 192.156 61.3672 196.404C60.1833 197.832 58.8944 200.569 64.4647 199.344C70.0349 198.12 75.9491 197.082 76.996 198.894C78.0429 200.705 74.9581 203.481 76.8929 205.852C78.1828 207.433 82.5208 202.405 89.907 190.77L119.364 173.403L109.956 157.123ZM235.692 161.02L214.795 161.102C227.698 202.756 234.664 224.857 235.692 227.406C238.006 233.14 233.109 241.874 231.015 246.567C237.835 249.619 237.109 238.317 245.712 242.32C253.565 245.973 259.538 252.593 268.611 246.995C269.726 246.306 270.949 243.715 267.995 241.69C260.638 236.645 250.035 227.815 248.602 224.909C246.648 220.945 242.345 199.649 235.692 161.02Z" fill="#B28B67"/>
<path fill-rule="evenodd" clip-rule="evenodd" d="M176.305 73.3324L167.658 71.8492C152.77 109.039 126.778 142.831 89.6814 173.225L117.713 207.282C154.806 164.005 177.67 119.355 176.305 73.3324Z" fill="#191847"/>
<path fill-rule="evenodd" clip-rule="evenodd" d="M214 182H137C154.839 138.625 163.759 101.779 163.759 71.4611L186.986 68.0003C205.24 97.3587 210.395 133.505 214 182Z" fill="#DDE3E9"/>
<path fill-rule="evenodd" clip-rule="evenodd" d="M187.478 68.0168C187.475 68.0113 187.471 68.0058 187.468 68.0003H185.952C184.138 68.0628 181.375 68.1754 177.662 68.338L172.05 84.3772C171.456 103.933 167.989 143.342 161.649 202.606H212.124C211.992 206.699 211.773 210.831 211.469 215H249C243.386 151.664 222.885 102.664 187.496 68.0003L187.478 68.0168Z" fill="#2F3676"/>
<path fill-rule="evenodd" clip-rule="evenodd" d="M208.79 150.233C207.353 175.748 203.757 193.337 198 203H212.111C212.729 184.643 211.622 167.054 208.79 150.233Z" fill="black" fill-opacity="0.1"/>
<path fill-rule="evenodd" clip-rule="evenodd" d="M200.889 172L176 160.43V172H200.889Z" fill="white" fill-opacity="0.2"/>
</g>
<defs>
<filter id="filter0_d_330_365" x="0" y="0" width="277" height="353" filterUnits="userSpaceOnUse" color-interpolation-filters="sRGB">
<feFlood flood-opacity="0" result="BackgroundImageFix"/>
<feColorMatrix in="SourceAlpha" type="matrix" values="0 0 0 0 0 0 0 0 0 0 0 0 0 0 0 0 0 0 127 0" result="hardAlpha"/>
<feOffset dy="4"/>
<feGaussianBlur stdDeviation="2"/>
<feComposite in2="hardAlpha" operator="out"/>
<feColorMatrix type="matrix" values="0 0 0 0 0 0 0 0 0 0 0 0 0 0 0 0 0 0 0.25 0"/>
<feBlend mode="normal" in2="BackgroundImageFix" result="effect1_dropShadow_330_365"/>
<feBlend mode="normal" in="SourceGraphic" in2="effect1_dropShadow_330_365" result="shape"/>
</filter>
</defs>
</svg>
